<svg width="96" height="29" viewBox="0 0 96 29" fill="none" xmlns="http://www.w3.org/2000/svg">
<path d="M41.3213 1.74585C43.3583 1.74585 45.0119 2.60739 45.0119 4.65639C45.0119 5.77795 44.378 6.62392 43.435 7.05289C44.6332 7.39439 45.5487 8.27151 45.5487 9.88195C45.5487 12.1418 43.8088 13.3281 41.6304 13.3281H35.8417V1.74585H41.3213ZM38.3137 6.4286H40.6227C41.5489 6.4286 42.5399 6.25006 42.5399 5.07937C42.5399 3.90868 41.5969 3.71337 40.6227 3.71337H38.3137V6.4286ZM38.3137 11.3067H40.8659C41.9551 11.3067 43.012 11.0946 43.012 9.72977C43.012 8.33142 41.8737 8.15168 40.7353 8.15168H38.3137V11.3067Z" fill="black"/>
<path d="M51.0142 13.5663C48.4296 13.5663 46.722 11.8097 46.722 9.17591C46.722 6.57452 48.4943 4.68848 50.9339 4.68848C53.4694 4.68848 55.0798 6.54217 55.0798 9.48147V9.70914H49.0634C49.0958 11.1602 49.8015 11.9403 51.0309 11.9403C51.8769 11.9403 52.397 11.5664 52.7385 10.7205H54.954C54.4292 12.5394 52.917 13.5663 51.0142 13.5663ZM50.9339 6.36363C49.9094 6.36363 49.194 7.08258 49.0634 8.24967H52.7385C52.6402 7.22517 52.0878 6.36363 50.9339 6.36363Z" fill="black"/>
<path d="M60.3427 13.5663C57.7581 13.5663 56.0506 11.8097 56.0506 9.17591C56.0506 6.57452 57.8228 4.68848 60.2612 4.68848C62.7979 4.68848 64.4072 6.54217 64.4072 9.48147V9.70914H58.392C58.4255 11.1602 59.1241 11.9403 60.3595 11.9403C61.2043 11.9403 61.7255 11.5664 62.067 10.7205H64.2778C63.7577 12.5394 62.2455 13.5663 60.3427 13.5663ZM60.2612 6.36363C59.2379 6.36363 58.5226 7.08258 58.392 8.24967H62.067C61.9687 7.22517 61.4211 6.36363 60.2612 6.36363Z" fill="black"/>
<path d="M71.172 6.91667C70.8785 6.85144 70.5787 6.81889 70.2781 6.81962C68.6844 6.81962 68.0673 7.95795 68.0673 9.48572V13.3201H65.7583V4.93238H67.9535V6.47692C68.4735 5.38771 69.4165 4.73706 70.6687 4.73706C70.8375 4.73968 71.0059 4.75611 71.172 4.78619V6.91667Z" fill="black"/>
<path d="M38.4204 28.3817H35.8682V16.8054H38.4204V28.3817Z" fill="black"/>
<path d="M45.9709 28.3819V23.4882C45.9709 22.4482 45.7768 21.6669 44.5414 21.6669C43.1586 21.6669 42.7201 22.659 42.7201 23.8789V28.3819H40.4266V19.9941H42.6218V21.1672C42.9356 20.7246 43.353 20.3657 43.8377 20.1219C44.3223 19.8782 44.8594 19.7569 45.4018 19.7689C47.174 19.7689 48.3123 20.8257 48.3123 22.7765V28.3855L45.9709 28.3819Z" fill="black"/>
<path d="M54.9971 22.4316C54.8665 21.5533 54.3297 21.2777 53.4035 21.2777C52.5899 21.2777 52.1022 21.5857 52.1022 22.1069C52.1022 22.8055 52.8211 22.9026 54.1512 23.1853C55.6634 23.4945 57.4188 23.8851 57.4188 25.7867C57.4188 27.5434 55.9725 28.6326 53.5844 28.6326C51.4875 28.6326 49.6817 27.8034 49.6494 25.6573H51.8374C51.9188 26.6651 52.5695 27.0557 53.6263 27.0557C54.5694 27.0557 55.1541 26.6483 55.1541 26.0144C55.1541 25.2955 54.4711 25.1756 53.2681 24.8929C51.7727 24.5514 49.8219 24.3237 49.8219 22.3238C49.8219 20.681 51.1544 19.7548 53.4957 19.7548C55.4129 19.7548 57.0725 20.4869 57.1384 22.4376L54.9971 22.4316Z" fill="black"/>
<path d="M61.1547 18.7562H58.8456V16.8054H61.1547V18.7562ZM61.1547 28.3817H58.8456V19.994H61.1547V28.3817Z" fill="black"/>
<path d="M68.9693 28.3817V27.3033C68.4157 28.1648 67.5865 28.6034 66.4326 28.6034C64.108 28.6034 62.6282 26.8635 62.6282 24.1483C62.6282 21.499 64.0757 19.7591 66.3032 19.7591C67.2942 19.7591 68.3187 20.1653 68.8555 21.0268V16.8054H71.1477V28.3817H68.9693ZM66.9323 21.5852C65.6801 21.5852 64.948 22.5438 64.948 24.1543C64.948 25.7647 65.6957 26.7557 66.9323 26.7557C68.2 26.7557 68.9322 25.8127 68.9322 24.1711C68.9322 22.5295 68.188 21.5852 66.9371 21.5852H66.9323Z" fill="black"/>
<path d="M76.866 28.626C74.2814 28.626 72.5739 26.8694 72.5739 24.2356C72.5739 21.6342 74.3461 19.7482 76.7846 19.7482C79.3212 19.7482 80.9305 21.6019 80.9305 24.5412V24.7688H74.9153C74.9476 26.2163 75.6462 26.9964 76.8828 26.9964C77.7216 26.9964 78.2476 26.6225 78.5891 25.7766H80.8011C80.2798 27.6015 78.7688 28.626 76.866 28.626ZM76.7846 21.4233C75.76 21.4233 75.0447 22.1423 74.9153 23.3094H78.5891C78.4921 22.2849 77.9397 21.4233 76.7846 21.4233Z" fill="black"/>
<path d="M87.6813 21.9764C87.3878 21.9111 87.088 21.8786 86.7874 21.8793C85.1937 21.8793 84.5754 23.0164 84.5754 24.5454V28.3798H82.264V19.9921H84.4592V21.5366C84.9792 20.4474 85.9222 19.7968 87.1744 19.7968C87.3432 19.7988 87.5116 19.8152 87.6777 19.8459L87.6813 21.9764Z" fill="black"/>
<path d="M93.5092 22.4316C93.3798 21.5533 92.843 21.2777 91.9168 21.2777C91.1032 21.2777 90.6155 21.5857 90.6155 22.1069C90.6155 22.8055 91.3344 22.9026 92.6645 23.1853C94.1767 23.4945 95.9321 23.8851 95.9321 25.7867C95.9321 27.5434 94.4846 28.6326 92.0977 28.6326C89.9996 28.6326 88.195 27.8034 88.1627 25.6573H90.3579C90.4393 26.6651 91.0888 27.0557 92.1468 27.0557C93.0887 27.0557 93.6746 26.6483 93.6746 26.0144C93.6746 25.2955 92.9916 25.1756 91.7886 24.8929C90.2931 24.5514 88.3412 24.3237 88.3412 22.3238C88.3412 20.681 89.6749 19.7548 92.0162 19.7548C93.9334 19.7548 95.593 20.4869 95.6577 22.4376L93.5092 22.4316Z" fill="black"/>
<path d="M6.92348 3.57797H10.2642V0H0V3.57797H3.34551V25.3789H0V28.9569H10.2642V25.3789H6.92348V3.57797Z" fill="black"/>
<path d="M20.2003 13.8697V13.8254C23.0761 12.6415 24.2 10.0809 24.2 7.87608C24.2 3.96141 21.2475 0 15.605 0H13.0887V3.57797H15.605C19.0703 3.57797 20.6208 5.73481 20.6208 7.87608C20.6208 10.2019 18.8738 12.1778 15.605 12.1778H10.2632V15.757C10.3291 15.757 15.605 15.733 15.605 15.7989C19.6383 15.7989 21.4428 18.2158 21.4428 20.6099C21.4428 23.004 19.6383 25.4208 15.605 25.4208H13.0887V29H15.605C21.7879 29 25.022 24.7786 25.022 20.6123C25.022 18.0516 23.7686 15.2261 20.2003 13.8697Z" fill="black"/>
</svg>
