<svg width="110" height="44" viewBox="0 0 110 44" fill="none" xmlns="http://www.w3.org/2000/svg">
<path fill-rule="evenodd" clip-rule="evenodd" d="M18.9283 0C16.4508 0 14.113 1.14795 12.5981 3.10842L1.77989 17.1084C-0.446406 19.9895 -0.446404 24.0105 1.77989 26.8916L12.5981 40.8916C14.113 42.8521 16.4508 44 18.9284 44H101.5C105.918 44 109.5 40.4183 109.5 36V8C109.5 3.58172 105.918 0 101.5 0H18.9283ZM16 26C18.2092 26 20 24.2091 20 22C20 19.7909 18.2092 18 16 18C13.7909 18 12 19.7909 12 22C12 24.2091 13.7909 26 16 26Z" fill="white"/>
</svg>
